inDegrees=no
num_controls=7
num_derivatives=13
num_iterations=129
num_multipliers=7
num_parameters=0
num_slacks=7
num_states=26
objective=5.603065
objective_accelerations=0.741349
objective_balance=0.025570
objective_effort=0.709790
objective_height=4.054048
objective_ligament=0.072309
solver_duration=1357.628423
status=Solve_Succeeded
success=true
DataType=double
version=3
OpenSimVersion=4.4-2022-07-23-0e9fedc
endheader
time	/jointset/ground_pelvis/pelvis_tilt/value	/jointset/ground_pelvis/pelvis_tx/value	/jointset/ground_pelvis/pelvis_ty/value	/jointset/hip_l/hip_flexion_l/value	/jointset/hip_l/hip_adduction_l/value	/jointset/hip_l/hip_rotation_l/value	/jointset/back/lumbar_extension/value	/jointset/patellofemoral_l/patellar_flexion_l/value	/jointset/knee_l/knee_flexion_l/value	/jointset/knee_l/knee_adduction_l/value	/jointset/knee_l/knee_rotation_l/value	/jointset/ankle_l/ankle_angle_l/value	/jointset/subtalar_l/subtalar_angle_l/value	/jointset/ground_pelvis/pelvis_tilt/speed	/jointset/ground_pelvis/pelvis_tx/speed	/jointset/ground_pelvis/pelvis_ty/speed	/jointset/hip_l/hip_flexion_l/speed	/jointset/hip_l/hip_adduction_l/speed	/jointset/hip_l/hip_rotation_l/speed	/jointset/back/lumbar_extension/speed	/jointset/patellofemoral_l/patellar_flexion_l/speed	/jointset/knee_l/knee_flexion_l/speed	/jointset/knee_l/knee_adduction_l/speed	/jointset/knee_l/knee_rotation_l/speed	/jointset/ankle_l/ankle_angle_l/speed	/jointset/subtalar_l/subtalar_angle_l/speed	/forceset/tau_hip_flexion_l	/forceset/tau_hip_adduction_l	/forceset/tau_hip_rotation_l	/forceset/tau_knee_flexion_l	/forceset/tau_ankle_angle_l	/forceset/tau_subtalar_angle_l	/forceset/tau_lumbar_extension	lambda_cid13_p0	lambda_cid13_p1	lambda_cid13_p2	lambda_cid13_p3	lambda_cid13_p4	lambda_cid13_p5	lambda_cid14_p0	/jointset/ground_pelvis/pelvis_tilt/accel	/jointset/ground_pelvis/pelvis_tx/accel	/jointset/ground_pelvis/pelvis_ty/accel	/jointset/hip_l/hip_flexion_l/accel	/jointset/hip_l/hip_adduction_l/accel	/jointset/hip_l/hip_rotation_l/accel	/jointset/back/lumbar_extension/accel	/jointset/patellofemoral_l/patellar_flexion_l/accel	/jointset/knee_l/knee_flexion_l/accel	/jointset/knee_l/knee_adduction_l/accel	/jointset/knee_l/knee_rotation_l/accel	/jointset/ankle_l/ankle_angle_l/accel	/jointset/subtalar_l/subtalar_angle_l/accel	gamma_cid13_p0	gamma_cid13_p1	gamma_cid13_p2	gamma_cid13_p3	gamma_cid13_p4	gamma_cid13_p5	gamma_cid14_p0
0.5	-0.1443054933928366	-0.09606540868987243	0.6705033677511465	1.412264592345352	-0.3196004787941069	0.04067224226616867	-0.8708142924730842	1.367032316129712	1.367032316129769	-0.03679786769459834	-0.1745305260740783	0.1940785348540484	0.04059648633828424	-0.09329492040586997	-0.1258341845454566	-0.8977643658758987	2.683611928078625	0.07892712120927496	0.8198436127333617	-0.7053767276268852	2.79107099609162	2.79107099609184	0.296139835503084	1.278999655387816e-05	0.3874623933085038	0.2370380445228134	-0.362739735872389	-0.02317995649366516	-0.002508727361272722	-0.3467847904587261	0.161415457448776	0.03628231475924947	0.4141227301042059	5.686550454708063	-15.67907951874821	0.8185963601061366	-27.18096518694165	-736.2535802694206	-75.08350340700821	-0.04255249922508855	1.56624223306797	1.418176463599531	-0.03480424646622828	-3.017679268959556	0.727339837349133	-0.6049272655740915	3.233917461154538	-3.06059773041592	-3.060597730415811	-0.238769596085213	0.002900850168790563	-1.803300953211972	0.3307254771877726	-1.049909473616731e-07	7.717685548056007e-08	2.05559110719591e-06	-6.605389189179392e-08	-2.096394301441802e-07	1.586816014109975e-06	-3.243255366289397e-07
0.51	-0.1451601900771132	-0.09725323339212374	0.6615261003078261	1.438947303476299	-0.3187753766607846	0.0488414708618755	-0.8777062784003791	1.39478661345914	1.394786613459126	-0.03385049536191487	-0.1745305115527651	0.1978618000780858	0.0429822173232349	-0.07762737028523367	-0.1117702201367989	-0.8974618698586386	2.652613451518261	0.08608079037392118	0.8139585242535231	-0.6730473035650133	2.759428841985683	2.759428841985919	0.2933138245412756	-1.036569765140972e-05	0.3691071207495304	0.2400534689419039	-0.3697679479354217	-0.02498976023820872	-0.001919071975404843	-0.3550315591088166	0.1627073090227216	0.03477364805956818	0.4215498489359918	5.469559580716885	-14.82955242596032	0.5046026821229018	-26.70415727696609	-745.069482626503	-75.16467762348664	-0.04229944648996668	1.569534541959552	1.394567491119811	0.0968280517509746	-3.188494303456419	0.7072374624983668	-0.5870545643853127	3.228428019030994	-3.269909260176791	-3.269909260174362	-0.3077308083662179	-0.004579451572236417	-1.864128146287623	0.2785064953339147	-4.667751040512272e-08	8.735783542036135e-08	1.710522900567293e-06	-1.255271311690554e-07	-1.635545372295767e-07	1.391201163440544e-06	-2.696204895788472e-07
0.52	-0.1458577066321098	-0.09830160623796463	0.6525586681298641	1.46531051735086	-0.3178791664345212	0.0569504975877369	-0.8842757754589903	1.42221371224561	1.422213712245527	-0.03093202593126025	-0.1745306597228443	0.201459015028723	0.04539641366658933	-0.06185889454864852	-0.0979438132633744	-0.8957973128042177	2.619712476802635	0.09314873979761285	0.8078032387658178	-0.6408789538900237	2.725631287499981	2.725631287500233	0.2903592550939625	-1.974828614018323e-05	0.3502523386286516	0.2427311162035621	-0.3767961599984595	-0.0267995639827735	-0.001329416589413979	-0.3632783277589033	0.1639991605966634	0.03326498135985786	0.4289769677677739	5.231999668751778	-13.97202245760037	0.1843081343926574	-26.22771157175293	-754.1644416095862	-75.32843968731935	-0.04194157033314605	1.586427356257955	1.370664956552743	0.2376079609659528	-3.398178900011756	0.7101958891583048	-0.6589666671473938	3.20170258377822	-3.491677806368825	-3.491677806368734	-0.2644812931861422	0.005655471312173678	-1.903202865593223	0.2631700457013211	3.383052961122384e-09	6.60565859659744e-08	1.354236993115322e-06	-1.841410340879465e-07	-1.261516264453525e-07	1.153535954062438e-06	-2.16709491697268e-07
0.53	-0.1463972713299952	-0.09921299618554101	0.6436146510370113	1.491335440718936	-0.3169125646075036	0.06499604009174145	-0.8905245860108361	1.449292338456138	1.449292338456127	-0.02804297291798961	-0.1745307753132405	0.2048655532565502	0.04783597292301753	-0.0460594474969962	-0.08438272504772243	-0.8927819536533419	2.584968387389558	0.1001534592468319	0.8012541032935222	-0.6089319455876051	2.6897566577658	2.689756657766467	0.2874301622356052	-5.257144905314575e-06	0.3310041630233891	0.2451277816579569	-0.3830311553139599	-0.02865273410528352	-0.0007223437429268152	-0.3711328168347456	0.165099886587543	0.03169748809021535	0.43559912512557	4.97087860264936	-13.07952763890693	-0.1476064809944108	-25.63421225732931	-762.5061298910047	-75.45397042869259	-0.04159257245141793	1.575867170186185	1.341505448757645	0.3671014078895685	-3.558119309074926	0.6927153865805864	-0.6606917683274868	3.183881587465812	-3.685912299368144	-3.685912299306027	-0.3103669648240883	-0.0006773129551136004	-1.943258631110053	0.2198212658877227	5.057231082596278e-08	3.884124316080046e-08	9.90777699377138e-07	-2.405747387131112e-07	-9.212138668544318e-08	8.644012323261828e-07	-1.603026887634663e-07
0.54	-0.1467790087992571	-0.09999024031202394	0.6347075078388155	1.517003804123453	-0.315876494503239	0.07297453028481146	-0.89645539015286	1.47600210702084	1.476002107020909	-0.02518385956983564	-0.1745307506419304	0.2080780829837008	0.05029788012810553	-0.03029344882262901	-0.07111464904468513	-0.8884225338728174	2.548400484091712	0.1070423952471261	0.7943927765789517	-0.5772776719254845	2.6518597583346	2.651859758335681	0.2843713220707059	8.304056957365738e-06	0.311450638493433	0.2472007059355168	-0.3892661506294623	-0.03050590422779706	-0.0001152708964477919	-0.3789873059105884	0.166200612578423	0.03012999482056879	0.4422212824833638	4.686393762342584	-12.17898932454112	-0.485316748270015	-25.02488503271114	-771.1537411919908	-75.66177139880203	-0.04125998644870103	1.579737680801126	1.312062514029692	0.5064200868956701	-3.76294167696568	0.68703919937341	-0.7214049156023289	3.143155655718741	-3.896131745772663	-3.896131745772661	-0.2904307544945545	0.005469483437835588	-1.964272650532133	0.198421810334333	9.45848051573341e-08	5.082648137734493e-09	6.193818931520804e-07	-2.945963090558553e-07	-6.18226127396694e-08	5.183215181936752e-07	-1.000281866229503e-07
0.55	-0.1470035032663001	-0.1006363454131246	0.6258506175081642	1.542297564210767	-0.3147720027266402	0.08088227703205678	-0.9020712924790254	1.502323062918202	1.502323062918226	-0.02235526652047004	-0.1745304853562651	0.2110939467198893	0.05277915991270717	-0.01463520287490612	-0.05816243982356789	-0.8827369706153075	2.510060029326482	0.113829193187248	0.7871066611725269	-0.5459710875155769	2.612017559782729	2.612017559783784	0.281313573168377	4.04853792517947e-05	0.2917064693681729	0.2490023399426636	-0.3946102968831103	-0.03237800103929473	0.0004908411275045796	-0.3864074813710864	0.1672100774467054	0.02851138052041209	0.4479636668640466	4.418372819115596	-11.25512188914802	-0.8313278346409232	-24.35820357361833	-778.9458697589998	-75.83612910055467	-0.04094048683192726	1.554386655314678	1.278325016152964	0.6323996322272216	-3.913335583346563	0.6704151435756641	-0.7397429838488169	3.114165702683179	-4.0753296829163	-4.075329682920065	-0.3185271892444984	0.001543350218830896	-1.981803433198635	0.1630463575581814	1.334722053422e-07	-3.437099790481161e-08	2.564820270349946e-07	-3.438915673703336e-07	-3.544289331733373e-08	1.409770363616288e-07	-3.945312055593824e-08
0.5600000000000001	-0.1470723115531612	-0.1011546234440144	0.6170571378474976	1.567199172109014	-0.3136004599601922	0.08871565699910355	-0.9073761777872811	1.528236183675441	1.528236183675424	-0.01955826700635203	-0.1745300080787006	0.2139119058868897	0.05527685846971096	0.0008437872151103575	-0.04554923500249705	-0.8757403998758563	2.469970046279453	0.1204525932171307	0.7795194205386499	-0.5150742683433973	2.570292730309982	2.570292730311013	0.2780526150203519	5.070244528720367e-05	0.2718697246558833	0.2504844604159414	-0.3999544431367582	-0.03425009785078863	0.001096953151468916	-0.3938276568315838	0.1682195423149894	0.02689276622026063	0.4537060512447293	4.124946203135408	-10.32335142461836	-1.182544208781827	-23.66094608863695	-787.0609150288781	-76.09054429572834	-0.04063425601092536	1.543886509260027	1.244261634020319	0.7686215832839219	-4.11284733332573	0.6543596173255894	-0.7816299610927651	3.061202608173248	-4.272657929947683	-4.272657929947614	-0.3310726036337721	0.001076632186046421	-1.982787767938217	0.1345191035604912	1.662094925512596e-07	-8.065870517073364e-08	-9.622271095252575e-08	-3.875152512508931e-07	-1.376603932312364e-08	-2.738851667098629e-07	2.148262222286901e-08
